**ABCDEFGHIJKLMNOPQRSTUVWXYZabcdefghijklmnopqrstuvwxyz**************************
**PARASOLID !"#$%&'()*+,-./:;<=>?@[\]^_`{|}~0123456789**************************
**PART1;
MC=AMD64;
MC_MODEL=Intel64 Family 6 Model 60 Stepping 3, GenuineIntel;
MC_ID=unknown;
OS=Windows_NT;
OS_RELEASE=unknown;
FRU=Parasolid Version 25.1, build 239,  8-18-2014;
APPL=SolidWorks 2014-2014292;
SITE=;
USER=unknown;
FORMAT=text;
GUISE=transmit;
KEY=M3 screw size FLAT WASHER;
FILE=M3 screw size FLAT WASHER.x_t;
DATE=Sat May 06 21:32:08 2017;
**PART2;
SCH=SCH_2501239_25001;
USFLD_SIZE=0;
**PART3;
**END_OF_HEADER*****************************************************************
T51 : TRANSMIT FILE created by modeller version 250123923 SCH_2501239_25001_1300
6189 0 12 29 CCCCCCCCCCCCCDI5 owner1040 0 CCCCCCCCCA16 index_map_offset0 0 1 dA9
 index_map82 0 A17 node_id_index_map82 0 A20 schema_embedding_map82 0 A5 child12
 0 A14 lowest_node_id0 0 1 dZ1 134 2 3 0 0 0 0 1e3 1e-8 0 4 0 1 0 1 1 5 6 7 0 8
 9 0 0 0 0 0 0 0 81 255 2 2 105 10 1 0 0 0 0 11 0 70 11 CI9 list_type0 0 1 uI10
 notransmit0 0 1 lCCCDCCDI12 finger_index0 0 1 dI12 finger_block1012 0 CZ3 0 4 T
1 0 0 3 20 1 12 12 13 255 5 29 0 1 0 13 0 0 14 0 51 255 6 28 0 15 16 0 0 -0 0 6e
-4 0 0 -1 .0035 -1 0 0 31 255 7 23 0 17 18 0 0 +0 0 0 0 0 1 1 0 0 .0035 19 8 CCC
CCCCA5 owner12 0 Z8 7 0 1 14 0 19 V0 16 255 9 4 0 ?20 0 17 18 0 0 1 17 255 20 0
 21 20 20 0 22 9 0 0 +16 17 18 0 ?23 9 24 7 0 0 1 31 18 5 0 9 25 7 0 +0 0 6e-4 0
 0 1 1 0 0 .0035 31 25 71 0 26 27 18 0 +0 0 0 0 0 1 1 0 0 .0016 16 26 49 0 ?28 2
4 0 25 0 0 1 31 27 72 0 24 0 25 0 +0 0 6e-4 0 0 1 1 0 0 .0016 16 24 52 0 ?29 17
 26 27 0 0 1 17 29 0 30 29 29 0 31 24 0 0 +15 255 30 58 0 29 32 33 17 31 0 34 31
 31 0 29 24 0 0 -15 34 43 0 31 13 0 14 255 13 46 35 ?36 0 21 5 37 +0 0 36 0 19 8
1 1 35 131 38 13 39 0 0 40 41 14 36 40 40 ?15 13 42 5 16 -0 0 15 13 19 15 21 3 0
 20 13 34 50 255 37 2 0 13 43 16 0 +0 0 6e-4 0 0 1 1 0 0 13 19 8 0 0 0 0 0 0 8 1
3 51 43 68 0 32 0 37 0 -0 0 6e-4 0 0 -1 .0016 -1 0 0 50 16 22 0 36 37 6 0 +0 0 0
 0 0 1 1 0 0 14 32 55 44 ?0 15 30 5 43 +0 0 0 15 19 81 1 44 133 38 32 45 0 40 46
 47 14 15 25 46 ?32 36 48 5 6 -0 0 32 36 19 81 1 46 134 38 15 49 0 44 0 50 15 48
 24 0 22 15 51 17 22 0 48 22 22 0 20 9 0 0 -15 51 26 0 23 15 0 17 23 0 51 23 23
 0 52 17 0 0 +17 52 0 42 52 52 0 23 17 0 0 -15 42 17 0 52 36 53 15 53 38 0 28 36
 0 17 28 0 53 28 28 0 54 26 0 0 +17 54 0 33 54 54 0 28 26 0 0 -15 33 59 0 54 32
 0 80 255 1 38 55 56 9000 1 1 1 1 1 1 1 1 0 FFFFTFTFFFFFFF1 81 1 49 119 57 15 0
 46 58 45 59 82 255 1 50 2089943142 80 1 57 0 60 8001 0 0 0 0 3 5 0 0 0 FFFFTFTF
FFFFFF2 81 1 58 118 57 36 0 40 39 49 61 81 1 45 120 57 32 0 44 49 0 62 83 255 3
 59 .752941176470588 .752941176470588 .752941176470588 83 3 62 .752941176470588
 .752941176470588 .752941176470588 81 1 40 132 38 36 58 0 35 44 63 81 1 39 117 5
7 13 0 35 0 58 64 83 3 61 .752941176470588 .752941176470588 .752941176470588 83
 3 64 .752941176470588 .752941176470588 .752941176470588 82 1 63 2095775846 79 2
55 15 60 SDL/TYSA_COLOUR79 14 56 SWEntUnchanged82 1 47 2094071910 82 1 41 209630
0134 19 14 30 0 1 0 8 5 S0 74 4 CI16 index_map_offset0 0 1 dCCZ20 12 3 0 0 46 2
 45 0 0 0 0 0 0 0 0 0 0 0 0 0 0 0 0 0 80 2 10 65 66 8004 0 0 0 0 3 5 0 0 0 FFTFF
FFFFFFFFF2 3 83 1 11 1e3 79 16 66 SDL/TYSA_DENSITY1 0 
